<?xml version="1.0" encoding="UTF-8"?>
<svg version="1.1" xmlns="http://www.w3.org/2000/svg" width="225" height="225">
<path d="M0 0 C4.67001274 3.37259523 7.06295427 6.2668843 9.62109375 11.5234375 C10.08286766 12.45828476 10.08286766 12.45828476 10.55397034 13.41201782 C11.52856941 15.39343973 12.48311875 17.38377508 13.4375 19.375 C14.07229568 20.67119665 14.70835562 21.96677494 15.34570312 23.26171875 C15.65819 23.90278564 15.97067688 24.54385254 16.29263306 25.2043457 C16.93057875 26.50510723 17.57746206 27.80152172 18.23300171 29.09350586 C19.88934781 32.41689388 21.22277835 35.58139046 22.18798828 39.171875 C23.42913487 43.35005203 24.65896063 47.04990139 28 50 C35.43463735 53.32725717 43.99182762 53.55054021 52 54.25 C55.30666173 54.60245986 58.61054766 54.97433563 61.91430664 55.35296631 C63.96347993 55.58088618 66.0148495 55.79009429 68.06811523 55.9776001 C74.33995855 56.58951025 79.81181284 57.44945027 84.875 61.5 C87.53210496 65.04280661 87.35916903 68.76180546 87 73 C85.13752656 76.72494687 82.81760924 79.25799803 79.69921875 81.9296875 C78.9913623 82.54553711 78.28350586 83.16138672 77.55419922 83.79589844 C76.20191734 84.96282644 74.84858481 86.12858715 73.48712158 87.28479004 C56.88676139 99.89826419 56.88676139 99.89826419 47.796875 117.28515625 C48.17811538 121.6993347 49.56171659 125.76209239 51.03662109 129.92041016 C52.80611141 135.57685993 53.61841392 141.43664994 54.53439331 147.28018188 C54.86884839 149.33716604 55.24484478 151.38260333 55.63110352 153.43041992 C57.70345049 165.25383916 57.70345049 165.25383916 54 171 C50.81949305 174.40768602 47.55479423 174.72606232 43 175 C40.25645394 174.06973411 37.98258239 173.12319282 35.4375 171.8125 C34.72078125 171.46026367 34.0040625 171.10802734 33.265625 170.74511719 C25.98515449 167.11415248 18.8526355 163.18248023 11.75170898 159.21411133 C10.00375062 158.24098966 8.24527805 157.28647804 6.47607422 156.35253906 C4 155 4 155 1.84033203 153.51464844 C-0.5748247 152.03397716 -2.17166726 151.30644848 -5 151 C-10.09706164 152.55495613 -14.53435885 155.11075972 -19.125 157.75 C-20.42411924 158.4631325 -21.72507615 159.17292735 -23.02783203 159.87939453 C-26.70598619 161.88378483 -30.35345752 163.93868179 -34 166 C-36.34230793 167.30194273 -38.6877531 168.59665849 -41.04248047 169.87597656 C-42.72329517 170.79229601 -44.3897944 171.73474817 -46.0546875 172.6796875 C-50.69206877 174.75851358 -54.43275389 175.57264762 -59.25 173.8125 C-62.85662012 171.43540947 -64.5261656 169.7193517 -65.6796875 165.53369141 C-66.12787158 160.58931921 -65.21696427 156.13185182 -64.3125 151.2734375 C-64.13114502 150.24819977 -63.94979004 149.22296204 -63.76293945 148.16665649 C-63.1847008 144.90100708 -62.59368715 141.63787377 -62 138.375 C-61.40692102 135.10489516 -60.81687375 131.83440459 -60.23706055 128.56192017 C-59.87665137 126.52825417 -59.50858502 124.49592713 -59.13208008 122.46517944 C-58.88687622 121.08321884 -58.88687622 121.08321884 -58.63671875 119.67333984 C-58.48936279 118.86536957 -58.34200684 118.05739929 -58.19018555 117.22494507 C-57.91532656 114.00942126 -58.26445374 111.94556655 -60.26348877 109.37574768 C-60.7968988 108.84899948 -61.33030884 108.32225128 -61.87988281 107.77954102 C-62.48431213 107.17533829 -63.08874146 106.57113556 -63.71148682 105.94862366 C-64.69734772 104.98598854 -64.69734772 104.98598854 -65.703125 104.00390625 C-66.37792908 103.33334702 -67.05273315 102.66278778 -67.74798584 101.97190857 C-69.90838353 99.828295 -72.0789516 97.69532063 -74.25 95.5625 C-75.69730143 94.13025102 -77.14392408 92.69731579 -78.58984375 91.26367188 C-81.25655148 88.62144398 -83.92713405 85.98327384 -86.60253906 83.34985352 C-87.18265747 82.7773587 -87.76277588 82.20486389 -88.36047363 81.61502075 C-89.41223694 80.57897791 -90.46692106 79.54588704 -91.52526855 78.51657104 C-94.63312674 75.47078939 -95.91554122 74.11907886 -96.25 69.6875 C-95.98240528 65.74047794 -95.39940349 64.08494735 -93 61 C-90.16466668 58.54192437 -88.03715335 57.55168801 -84.34375 56.97265625 C-83.41755859 56.82481689 -82.49136719 56.67697754 -81.53710938 56.5246582 C-80.53486328 56.372146 -79.53261719 56.21963379 -78.5 56.0625 C-77.45134766 55.87453857 -76.40269531 55.68657715 -75.32226562 55.49291992 C-69.38739371 54.4728093 -63.77570566 53.92834278 -57.75 54.015625 C-46.92859567 53.89053143 -46.92859567 53.89053143 -37 50 C-30.18947355 42.76022478 -26.81278214 32.35184078 -23.39852905 23.20185852 C-16.70496928 5.3142174 -16.70496928 5.3142174 -9 0 C-5.35845458 -1.21384847 -3.69332968 -1.01385521 0 0 Z " fill="#FAAB02" transform="translate(117,18)"/>
<path d="M0 0 C3.73138252 0.72807464 4.3816182 2.38090619 6.5625 5.5 C8.41129482 8.79164553 10.09092148 12.16007423 11.765625 15.54296875 C12.2482782 16.50777664 12.7309314 17.47258453 13.22821045 18.46662903 C14.2429139 20.49836945 15.25467676 22.53158081 16.26367188 24.56616211 C17.81400899 27.69054105 19.37502564 30.80941048 20.9375 33.92773438 C21.9225107 35.90332901 22.90690735 37.87922994 23.890625 39.85546875 C24.59363739 41.26012642 24.59363739 41.26012642 25.31085205 42.69316101 C25.73839783 43.55778458 26.1659436 44.42240814 26.60644531 45.31323242 C26.98520813 46.07536545 27.36397095 46.83749847 27.75421143 47.62272644 C28.5625 49.5 28.5625 49.5 28.5625 51.5 C29.18898438 51.53738281 29.81546875 51.57476562 30.4609375 51.61328125 C31.27820313 51.67902344 32.09546875 51.74476562 32.9375 51.8125 C34.15566406 51.89951172 34.15566406 51.89951172 35.3984375 51.98828125 C37.5625 52.5 37.5625 52.5 39.5625 55.5 C39.58257613 69.4930651 33.2620901 87.31415076 23.5625 97.5 C22.9025 97.5 22.2425 97.5 21.5625 97.5 C21.0675 99.48 21.0675 99.48 20.5625 101.5 C19.9025 101.5 19.2425 101.5 18.5625 101.5 C18.31371094 102.08394531 18.06492187 102.66789062 17.80859375 103.26953125 C16.38754563 105.81316284 14.83057085 107.29407698 12.625 109.1875 C11.93535156 109.78949219 11.24570313 110.39148438 10.53515625 111.01171875 C8.5625 112.5 8.5625 112.5 5.5625 113.5 C5.0675 114.985 5.0675 114.985 4.5625 116.5 C0.22916667 119.5 0.22916667 119.5 -2.4375 119.5 C-2.4375 120.16 -2.4375 120.82 -2.4375 121.5 C-4.4175 121.83 -6.3975 122.16 -8.4375 122.5 C-8.4375 123.16 -8.4375 123.82 -8.4375 124.5 C-15.47060811 127.60284181 -22.31402954 127.68220149 -29.875 127.6875 C-30.79087891 127.69974609 -31.70675781 127.71199219 -32.65039062 127.72460938 C-37.98383415 127.73609561 -42.39395496 127.25518142 -47.4375 125.5 C-47.4645043 124.04176788 -47.48389787 122.58339325 -47.5 121.125 C-47.51160156 120.31289062 -47.52320313 119.50078125 -47.53515625 118.6640625 C-47.4375 116.5 -47.4375 116.5 -46.4375 114.5 C-46.23801452 112.35980579 -46.12477735 110.21106865 -46.0625 108.0625 C-46.01351562 106.90878906 -45.96453125 105.75507813 -45.9140625 104.56640625 C-46.10289217 101.39772312 -46.10289217 101.39772312 -48.4609375 99.90234375 C-49.44320312 99.43957031 -50.42546875 98.97679688 -51.4375 98.5 C-59.16475333 94.31440445 -64.98425528 88.51170895 -71.14941406 82.34399414 C-72.9457738 80.5542567 -74.76487383 78.78994359 -76.5859375 77.02539062 C-77.73583707 75.88428395 -78.88432687 74.7417545 -80.03125 73.59765625 C-80.57487183 73.07559097 -81.11849365 72.5535257 -81.67858887 72.01564026 C-84.17876851 69.4688151 -85.37740595 67.8652836 -85.96289062 64.30639648 C-85.37071978 61.14329061 -84.90706954 60.44718822 -82.4375 58.5 C-80.29484558 57.87348938 -80.29484558 57.87348938 -77.78588867 57.5168457 C-76.84448532 57.37692703 -75.90308197 57.23700836 -74.93315125 57.09284973 C-73.91751602 56.95521713 -72.9018808 56.81758453 -71.85546875 56.67578125 C-70.80853348 56.52465378 -69.76159821 56.37352631 -68.68293762 56.21781921 C-66.46711113 55.90032972 -64.25041435 55.58886473 -62.03295898 55.28295898 C-58.64695329 54.81553059 -55.26387299 54.33036406 -51.88085938 53.84179688 C-49.72671104 53.53541215 -47.57241834 53.23004035 -45.41796875 52.92578125 C-44.40840622 52.78207596 -43.39884369 52.63837067 -42.35868835 52.49031067 C-37.68176006 51.84861535 -33.17223944 51.31764484 -28.4375 51.5 C-28.20409912 50.70940186 -27.97069824 49.91880371 -27.73022461 49.10424805 C-26.07638922 44.49318632 -23.9444455 40.20856835 -21.75390625 35.83203125 C-21.29773422 34.91540207 -20.84156219 33.99877289 -20.37156677 33.05436707 C-19.40949697 31.12450226 -18.44534807 29.19567268 -17.47924805 27.26782227 C-16.00156666 24.31562996 -14.53464534 21.35825606 -13.06835938 18.40039062 C-12.13085684 16.5231135 -11.19272721 14.64614938 -10.25390625 12.76953125 C-9.59751915 11.44294243 -9.59751915 11.44294243 -8.9278717 10.08955383 C-8.51411789 9.26827499 -8.10036407 8.44699615 -7.67407227 7.60083008 C-7.31370377 6.87946365 -6.95333527 6.15809723 -6.58204651 5.41487122 C-4.79474798 2.42465066 -3.46873342 0.71153506 0 0 Z " fill="#FCC402" transform="translate(112.4375,22.5)"/>
<path d="M0 0 C4.67001274 3.37259523 7.06295427 6.2668843 9.62109375 11.5234375 C10.08286766 12.45828476 10.08286766 12.45828476 10.55397034 13.41201782 C11.52856941 15.39343973 12.48311875 17.38377508 13.4375 19.375 C14.07229568 20.67119665 14.70835562 21.96677494 15.34570312 23.26171875 C15.65819 23.90278564 15.97067688 24.54385254 16.29263306 25.2043457 C16.93057875 26.50510723 17.57746206 27.80152172 18.23300171 29.09350586 C19.88934781 32.41689388 21.22277835 35.58139046 22.18798828 39.171875 C23.42913487 43.35005203 24.65896063 47.04990139 28 50 C35.43463735 53.32725717 43.99182762 53.55054021 52 54.25 C55.30666173 54.60245986 58.61054766 54.97433563 61.91430664 55.35296631 C63.96347993 55.58088618 66.0148495 55.79009429 68.06811523 55.9776001 C74.33995855 56.58951025 79.81181284 57.44945027 84.875 61.5 C87.53210496 65.04280661 87.35916903 68.76180546 87 73 C85.13752656 76.72494687 82.81760924 79.25799803 79.69921875 81.9296875 C78.9913623 82.54553711 78.28350586 83.16138672 77.55419922 83.79589844 C76.20191734 84.96282644 74.84858481 86.12858715 73.48712158 87.28479004 C56.88676139 99.89826419 56.88676139 99.89826419 47.796875 117.28515625 C48.17811538 121.6993347 49.56171659 125.76209239 51.03662109 129.92041016 C52.80611141 135.57685993 53.61841392 141.43664994 54.53439331 147.28018188 C54.86884839 149.33716604 55.24484478 151.38260333 55.63110352 153.43041992 C57.70345049 165.25383916 57.70345049 165.25383916 54 171 C50.81949305 174.40768602 47.55479423 174.72606232 43 175 C40.25645394 174.06973411 37.98258239 173.12319282 35.4375 171.8125 C34.72078125 171.46026367 34.0040625 171.10802734 33.265625 170.74511719 C25.98515449 167.11415248 18.8526355 163.18248023 11.75170898 159.21411133 C10.00375062 158.24098966 8.24527805 157.28647804 6.47607422 156.35253906 C4 155 4 155 1.84033203 153.51464844 C-0.5748247 152.03397716 -2.17166726 151.30644848 -5 151 C-10.09706164 152.55495613 -14.53435885 155.11075972 -19.125 157.75 C-20.42411924 158.4631325 -21.72507615 159.17292735 -23.02783203 159.87939453 C-26.70598619 161.88378483 -30.35345752 163.93868179 -34 166 C-36.34230793 167.30194273 -38.6877531 168.59665849 -41.04248047 169.87597656 C-42.72329517 170.79229601 -44.3897944 171.73474817 -46.0546875 172.6796875 C-50.69206877 174.75851358 -54.43275389 175.57264762 -59.25 173.8125 C-62.85662012 171.43540947 -64.5261656 169.7193517 -65.6796875 165.53369141 C-66.12787158 160.58931921 -65.21696427 156.13185182 -64.3125 151.2734375 C-64.13114502 150.24819977 -63.94979004 149.22296204 -63.76293945 148.16665649 C-63.1847008 144.90100708 -62.59368715 141.63787377 -62 138.375 C-61.40692102 135.10489516 -60.81687375 131.83440459 -60.23706055 128.56192017 C-59.87665137 126.52825417 -59.50858502 124.49592713 -59.13208008 122.46517944 C-58.88687622 121.08321884 -58.88687622 121.08321884 -58.63671875 119.67333984 C-58.48936279 118.86536957 -58.34200684 118.05739929 -58.19018555 117.22494507 C-57.91532656 114.00942126 -58.26445374 111.94556655 -60.26348877 109.37574768 C-60.7968988 108.84899948 -61.33030884 108.32225128 -61.87988281 107.77954102 C-62.48431213 107.17533829 -63.08874146 106.57113556 -63.71148682 105.94862366 C-64.69734772 104.98598854 -64.69734772 104.98598854 -65.703125 104.00390625 C-66.37792908 103.33334702 -67.05273315 102.66278778 -67.74798584 101.97190857 C-69.90838353 99.828295 -72.0789516 97.69532063 -74.25 95.5625 C-75.69730143 94.13025102 -77.14392408 92.69731579 -78.58984375 91.26367188 C-81.25655148 88.62144398 -83.92713405 85.98327384 -86.60253906 83.34985352 C-87.18265747 82.7773587 -87.76277588 82.20486389 -88.36047363 81.61502075 C-89.41223694 80.57897791 -90.46692106 79.54588704 -91.52526855 78.51657104 C-94.63312674 75.47078939 -95.91554122 74.11907886 -96.25 69.6875 C-95.98240528 65.74047794 -95.39940349 64.08494735 -93 61 C-90.16466668 58.54192437 -88.03715335 57.55168801 -84.34375 56.97265625 C-83.41755859 56.82481689 -82.49136719 56.67697754 -81.53710938 56.5246582 C-80.53486328 56.372146 -79.53261719 56.21963379 -78.5 56.0625 C-77.45134766 55.87453857 -76.40269531 55.68657715 -75.32226562 55.49291992 C-69.38739371 54.4728093 -63.77570566 53.92834278 -57.75 54.015625 C-46.92859567 53.89053143 -46.92859567 53.89053143 -37 50 C-30.18947355 42.76022478 -26.81278214 32.35184078 -23.39852905 23.20185852 C-16.70496928 5.3142174 -16.70496928 5.3142174 -9 0 C-5.35845458 -1.21384847 -3.69332968 -1.01385521 0 0 Z M-11 10 C-12.84879482 13.29164553 -14.52842148 16.66007423 -16.203125 20.04296875 C-16.6857782 21.00777664 -17.1684314 21.97258453 -17.66571045 22.96662903 C-18.6804139 24.99836945 -19.69217676 27.03158081 -20.70117188 29.06616211 C-22.25150899 32.19054105 -23.81252564 35.30941048 -25.375 38.42773438 C-26.3600107 40.40332901 -27.34440735 42.37922994 -28.328125 44.35546875 C-28.79679993 45.2919072 -29.26547485 46.22834564 -29.74835205 47.19316101 C-30.17589783 48.05778458 -30.6034436 48.92240814 -31.04394531 49.81323242 C-31.61208954 50.95643196 -31.61208954 50.95643196 -32.19171143 52.12272644 C-33.13182193 53.9655119 -33.13182193 53.9655119 -33 56 C-34.15592651 56.05824951 -34.15592651 56.05824951 -35.33520508 56.11767578 C-45.30289814 56.71670447 -55.10986203 58.00030344 -64.98120117 59.47412109 C-67.71948454 59.87973781 -70.46008956 60.26615235 -73.20117188 60.65234375 C-74.95069276 60.91029496 -76.70004878 61.16936741 -78.44921875 61.4296875 C-79.2647673 61.54230927 -80.08031586 61.65493103 -80.920578 61.77096558 C-84.94992798 62.39327871 -87.40452265 62.80091129 -90 66 C-90.95401555 68.76246904 -90.95401555 68.76246904 -90 72 C-87.52386964 75.14116549 -84.57980407 77.73074279 -81.6171875 80.40625 C-79.87487308 82.05317704 -78.13403288 83.70166483 -76.39453125 85.3515625 C-73.64056103 87.93227457 -70.87653584 90.4986031 -68.08447266 93.03808594 C-52.64784194 107.15204633 -52.64784194 107.15204633 -51.15673828 113.70703125 C-51.66730889 117.39975049 -52.71790465 120.50241702 -54 124 C-54.61787644 126.91986867 -55.05355985 129.86337014 -55.5078125 132.8125 C-55.77080034 134.33532096 -56.03774831 135.85746317 -56.30859375 137.37890625 C-56.44249512 138.1383252 -56.57639648 138.89774414 -56.71435547 139.68017578 C-56.99068568 141.24122793 -57.26804821 142.80209765 -57.54638672 144.36279297 C-57.95468832 146.6577624 -58.35666443 148.95377095 -58.7578125 151.25 C-58.88278107 151.9406958 -59.00774963 152.6313916 -59.13650513 153.34301758 C-59.81824965 157.27197279 -60.27397434 161.01385601 -60 165 C-58.15827243 167.59206102 -57.04881892 168.8184365 -53.87890625 169.3671875 C-49.6019441 168.82168622 -46.36194662 166.82539 -42.625 164.75 C-40.94058047 163.83766174 -39.25566077 162.92624648 -37.5703125 162.015625 C-36.67602539 161.52900391 -35.78173828 161.04238281 -34.86035156 160.54101562 C-28.77419895 157.26209831 -22.61854987 154.11396423 -16.47900391 150.93652344 C-15.54749512 150.4521582 -14.61598633 149.96779297 -13.65625 149.46875 C-12.41584961 148.82583008 -12.41584961 148.82583008 -11.15039062 148.16992188 C-8.81162123 146.93913823 -8.81162123 146.93913823 -6 145 C-1.05394337 145.2410533 3.12157815 147.9962758 7.375 150.3125 C9.05691123 151.21425161 10.7392221 152.1152581 12.421875 153.015625 C13.31583984 153.49580078 14.20980469 153.97597656 15.13085938 154.47070312 C21.28999413 157.75361838 27.49780831 160.94472137 33.69677734 164.15161133 C34.63473145 164.63911865 35.57268555 165.12662598 36.5390625 165.62890625 C37.37646973 166.06275635 38.21387695 166.49660645 39.07666016 166.94360352 C41 168 41 168 42 169 C45.48055874 168.82432642 45.48055874 168.82432642 49 168 C54.73419424 159.39870864 47.63417027 140.03034686 45.86035156 130.21459961 C45.36593426 127.46849586 44.8815926 124.7207604 44.3984375 121.97265625 C44.24329681 121.13098404 44.08815613 120.28931183 43.92831421 119.4221344 C43.72282455 118.24456825 43.72282455 118.24456825 43.51318359 117.04321289 C43.38962494 116.35691299 43.26606628 115.6706131 43.13876343 114.96351624 C42.90536128 111.66085279 43.40041773 109.72555592 45.5249176 107.1546936 C46.17999802 106.52437225 46.83507843 105.8940509 47.51000977 105.24462891 C48.25070206 104.52352936 48.99139435 103.80242981 49.75453186 103.05947876 C50.55870041 102.28961639 51.36286896 101.51975403 52.19140625 100.7265625 C53.87475659 99.08114609 55.55768647 97.43529944 57.24023438 95.7890625 C59.90342743 93.20040048 62.57109906 90.61672238 65.24682617 88.04101562 C67.82484973 85.55349487 70.38399212 83.04774226 72.94140625 80.5390625 C74.15069542 79.39034164 74.15069542 79.39034164 75.38441467 78.21841431 C79.68118924 74.09649814 79.68118924 74.09649814 81.69116211 68.65380859 C80.9212 65.69743694 80.34666689 64.87405917 78 63 C75.820316 62.30731561 75.820316 62.30731561 73.34838867 62.0168457 C72.40698532 61.87692703 71.46558197 61.73700836 70.49565125 61.59284973 C69.48001602 61.45521713 68.4643808 61.31758453 67.41796875 61.17578125 C66.37103348 61.02465378 65.32409821 60.87352631 64.24543762 60.71781921 C62.02961113 60.40032972 59.81291435 60.08886473 57.59545898 59.78295898 C54.20945329 59.31553059 50.82637299 58.83036406 47.44335938 58.34179688 C45.28921104 58.03541215 43.13491834 57.73004035 40.98046875 57.42578125 C39.97090622 57.28207596 38.96134369 57.13837067 37.92118835 56.99031067 C33.24426006 56.34861535 28.73473944 55.81764484 24 56 C23.64989868 54.81410278 23.64989868 54.81410278 23.29272461 53.60424805 C21.63888922 48.99318632 19.5069455 44.70856835 17.31640625 40.33203125 C16.86023422 39.41540207 16.40406219 38.49877289 15.93406677 37.55436707 C14.97199697 35.62450226 14.00784807 33.69567268 13.04174805 31.76782227 C11.56406666 28.81562996 10.09714534 25.85825606 8.63085938 22.90039062 C7.69335684 21.0231135 6.75522721 19.14614938 5.81640625 17.26953125 C5.16001915 15.94294243 5.16001915 15.94294243 4.4903717 14.58955383 C4.07661789 13.76827499 3.66286407 12.94699615 3.23657227 12.10083008 C2.87620377 11.37946365 2.51583527 10.65809723 2.14454651 9.91487122 C0.9497843 7.91598716 -0.2211385 6.49941764 -2 5 C-7.04319781 3.96549788 -8.22383366 6.02953116 -11 10 Z " fill="#211D1B" transform="translate(117,18)"/>
<path d="M0 0 C4.67001274 3.37259523 7.06295427 6.2668843 9.62109375 11.5234375 C10.08286766 12.45828476 10.08286766 12.45828476 10.55397034 13.41201782 C11.52856941 15.39343973 12.48311875 17.38377508 13.4375 19.375 C14.07229568 20.67119665 14.70835562 21.96677494 15.34570312 23.26171875 C15.65819 23.90278564 15.97067688 24.54385254 16.29263306 25.2043457 C16.93057875 26.50510723 17.57746206 27.80152172 18.23300171 29.09350586 C19.88934781 32.41689388 21.22277835 35.58139046 22.18798828 39.171875 C23.42913487 43.35005203 24.65896063 47.04990139 28 50 C35.43463735 53.32725717 43.99182762 53.55054021 52 54.25 C55.30666173 54.60245986 58.61054766 54.97433563 61.91430664 55.35296631 C63.96347993 55.58088618 66.0148495 55.79009429 68.06811523 55.9776001 C74.33995855 56.58951025 79.81181284 57.44945027 84.875 61.5 C87.53210496 65.04280661 87.35916903 68.76180546 87 73 C85.11885063 76.76229875 82.80129471 79.25230986 79.625 81.91015625 C73.61422207 87.10737347 68.09310146 92.80033873 62.5 98.4375 C61.38044368 99.5620833 60.26065371 100.68643405 59.140625 101.81054688 C56.42438466 104.53769344 53.71131708 107.26795907 51 110 C50.01 109.01 49.02 108.02 48 107 C48.639375 106.7525 49.27875 106.505 49.9375 106.25 C52.18741541 105.18437567 52.18741541 105.18437567 52.75 102.875 C52.8325 102.25625 52.915 101.6375 53 101 C53.66 101 54.32 101 55 101 C55.495 99.515 55.495 99.515 56 98 C57.63260714 96.62517293 59.30225062 95.29352333 61 94 C61.53625 93.443125 62.0725 92.88625 62.625 92.3125 C64 91 64 91 67 90 C67 89.01 67 88.02 67 87 C68.66279327 85.9935725 70.32983484 84.99414593 72 84 C72.33 83.319375 72.66 82.63875 73 81.9375 C74 80 74 80 76.625 78.75 C77.40875 78.5025 78.1925 78.255 79 78 C79 77.01 79 76.02 79 75 C79.680625 74.360625 80.36125 73.72125 81.0625 73.0625 C81.701875 72.381875 82.34125 71.70125 83 71 C82.84311576 68.87183587 82.84311576 68.87183587 82 67 C82 66.34 82 65.68 82 65 C81.67 64.34 81.34 63.68 81 63 C80.34 63.66 79.68 64.32 79 65 C78.67 64.67 78.34 64.34 78 64 C76.43847485 63.92151394 74.87377531 63.90519543 73.31030273 63.91381836 C32.45834771 63.62644443 32.45834771 63.62644443 21.409729 53.66448975 C11.0885948 41.39524388 5.53958895 25.12535035 0.78826904 10.00894165 C0.08214071 7.81549794 0.08214071 7.81549794 -2 6 C-4.36757327 5.16458146 -4.36757327 5.16458146 -7 6 C-11.15506994 11.17427236 -13.93961574 17.61060831 -16.86328125 23.53125 C-17.30012741 24.40777222 -17.73697357 25.28429443 -18.1870575 26.18737793 C-19.56601064 28.95637826 -20.93934056 31.72812275 -22.3125 34.5 C-23.25288318 36.39081007 -24.19363489 38.2814369 -25.13476562 40.171875 C-27.42744123 44.77914347 -29.71508191 49.38887969 -32 54 C-32.58426758 53.83701416 -33.16853516 53.67402832 -33.77050781 53.50610352 C-37.07883712 52.75509972 -40.37737159 52.89605939 -43.75 52.9375 C-44.44738281 52.94201172 -45.14476563 52.94652344 -45.86328125 52.95117188 C-47.57555803 52.9628998 -49.28779033 52.98083347 -51 53 C-51 52.67 -51 52.34 -51 52 C-50.08726318 52.03907471 -49.17452637 52.07814941 -48.23413086 52.1184082 C-44.0495274 51.97150748 -40.91159168 51.53144233 -37 50 C-33.03260398 45.24171535 -30.88929093 39.88383116 -28.5625 34.1875 C-27.91983797 32.71455041 -27.27208124 31.24381275 -26.61914062 29.77539062 C-25.65667645 27.6047016 -24.69793519 25.43307727 -23.75601196 23.25338745 C-15.69064939 4.60958263 -15.69064939 4.60958263 -9 0 C-5.35845458 -1.21384847 -3.69332968 -1.01385521 0 0 Z " fill="#1D1715" transform="translate(117,18)"/>
<path d="M0 0 C2.21813579 -0.00217228 4.43576125 -0.02034266 6.65380859 -0.03930664 C16.89759722 -0.07932255 27.81382953 -0.08297154 37.61865234 3.18530273 C38.11365234 4.67030273 38.11365234 4.67030273 38.61865234 6.18530273 C33.52375244 12.03086188 23.89965235 11.65268582 16.61865234 12.18530273 C-18.80108482 13.55650574 -18.80108482 13.55650574 -32.38134766 7.18530273 C-31.81884766 5.31030273 -31.81884766 5.31030273 -30.38134766 3.18530273 C-20.79366248 -0.53237111 -10.13113276 -0.00110578 0 0 Z " fill="#E9E9E9" transform="translate(109.38134765625,195.814697265625)"/>
<path d="M0 0 C-1.28965176 1.37562854 -2.62689293 2.70766393 -4 4 C-4.66 4 -5.32 4 -6 4 C-6.06372803 4.77939941 -6.12745605 5.55879883 -6.19311523 6.36181641 C-7.31188742 11.40627724 -9.56794604 15.62809056 -11.91015625 20.2109375 C-12.64050331 21.66314194 -12.64050331 21.66314194 -13.38560486 23.14468384 C-14.93707833 26.22530362 -16.49960528 29.30016145 -18.0625 32.375 C-19.11857331 34.46707717 -20.17392029 36.55952116 -21.22851562 38.65234375 C-23.81060837 43.77250997 -26.40179063 48.88799495 -29 54 C-29.58426758 53.83701416 -30.16853516 53.67402832 -30.77050781 53.50610352 C-34.07883712 52.75509972 -37.37737159 52.89605939 -40.75 52.9375 C-41.44738281 52.94201172 -42.14476563 52.94652344 -42.86328125 52.95117188 C-44.57555803 52.9628998 -46.28779033 52.98083347 -48 53 C-48 52.67 -48 52.34 -48 52 C-47.08726318 52.03907471 -46.17452637 52.07814941 -45.23413086 52.1184082 C-41.0495274 51.97150748 -37.91159168 51.53144233 -34 50 C-30.03260398 45.24171535 -27.88929093 39.88383116 -25.5625 34.1875 C-24.91983797 32.71455041 -24.27208124 31.24381275 -23.61914062 29.77539062 C-22.65667645 27.6047016 -21.69793519 25.43307727 -20.75601196 23.25338745 C-12.69064939 4.60958263 -12.69064939 4.60958263 -6 0 C-3 -1 -3 -1 0 0 Z " fill="#25221F" transform="translate(114,18)"/>
<path d="M0 0 C21.44132613 1.00290074 21.44132613 1.00290074 27.27734375 5.91796875 C30.40672342 9.70018953 30.40292609 13.24547211 30 18 C28.11885063 21.76229875 25.80129471 24.25230986 22.625 26.91015625 C16.61422207 32.10737347 11.09310146 37.80033873 5.5 43.4375 C4.38044368 44.5620833 3.26065371 45.68643405 2.140625 46.81054688 C-0.57561534 49.53769344 -3.28868292 52.26795907 -6 55 C-6.99 54.01 -7.98 53.02 -9 52 C-8.360625 51.7525 -7.72125 51.505 -7.0625 51.25 C-4.81258459 50.18437567 -4.81258459 50.18437567 -4.25 47.875 C-4.1675 47.25625 -4.085 46.6375 -4 46 C-3.34 46 -2.68 46 -2 46 C-1.67 45.01 -1.34 44.02 -1 43 C0.63260714 41.62517293 2.30225062 40.29352333 4 39 C4.53625 38.443125 5.0725 37.88625 5.625 37.3125 C7 36 7 36 10 35 C10 34.01 10 33.02 10 32 C11.66279327 30.9935725 13.32983484 29.99414593 15 29 C15.33 28.319375 15.66 27.63875 16 26.9375 C17 25 17 25 19.625 23.75 C20.40875 23.5025 21.1925 23.255 22 23 C22 22.01 22 21.02 22 20 C22.680625 19.360625 23.36125 18.72125 24.0625 18.0625 C25.0215625 17.0415625 25.0215625 17.0415625 26 16 C25.84311576 13.87183587 25.84311576 13.87183587 25 12 C25 11.34 25 10.68 25 10 C24.505 9.01 24.505 9.01 24 8 C23.34 8.66 22.68 9.32 22 10 C21.67 9.67 21.34 9.34 21 9 C18.81980521 8.60333773 16.6303537 8.25684763 14.4375 7.9375 C13.23996094 7.76089844 12.04242188 7.58429688 10.80859375 7.40234375 C9.88175781 7.26957031 8.95492187 7.13679688 8 7 C7.67 6.01 7.34 5.02 7 4 C5.35448038 3.28272222 3.68577711 2.61674772 2 2 C1.34 1.34 0.68 0.68 0 0 Z " fill="#282829" transform="translate(174,73)"/>
<path d="M0 0 C1.32216759 3.96650276 -0.00457169 6.24468924 -1.5 9.9375 C-2.06087166 11.37150698 -2.61935201 12.80645092 -3.17578125 14.2421875 C-3.47307129 15.00756836 -3.77036133 15.77294922 -4.07666016 16.56152344 C-6.01968693 21.69292253 -7.77349032 26.89310577 -9.55078125 32.08374023 C-14.07751969 45.18933548 -14.07751969 45.18933548 -17.0625 47.8125 C-22.53948094 50.02659868 -28.10574135 51 -34 51 C-34 48.36 -34 45.72 -34 43 C-33.12859375 43.14566406 -32.2571875 43.29132813 -31.359375 43.44140625 C-27.01879611 43.58703173 -23.61207034 43.48110208 -20 41 C-15.1562988 34.51916648 -12.36912959 26.6195801 -9.33105469 19.17919922 C-7.5071464 14.82282841 -5.4130532 10.63301808 -3.25 6.4375 C-2.6084641 5.1658237 -1.96772873 3.89374295 -1.328125 2.62109375 C-0.88984375 1.75613281 -0.4515625 0.89117187 0 0 Z " fill="#FEDF60" transform="translate(106,37)"/>
<path d="M0 0 C1 3 1 3 -0.6171875 6.4765625 C-1.36428669 7.86235694 -2.11720776 9.24502378 -2.875 10.625 C-5.64087825 15.85696872 -7.5276467 19.98683999 -7.76953125 25.96484375 C-8.25784258 30.27688109 -9.88113325 33.97544023 -13 37 C-16.70501079 38.04740811 -20.16778053 38.16778544 -24 38 C-23.34 37.67 -22.68 37.34 -22 37 C-22 36.34 -22 35.68 -22 35 C-27.445 35.495 -27.445 35.495 -33 36 C-32.979375 37.794375 -32.95875 39.58875 -32.9375 41.4375 C-32.9161878 43.29166122 -32.92773498 45.14712498 -33 47 C-34 48 -34 48 -37.5625 48.0625 C-38.696875 48.041875 -39.83125 48.02125 -41 48 C-41 45.36 -41 42.72 -41 40 C-40.01 40 -39.02 40 -38 40 C-38 39.34 -38 38.68 -38 38 C-39.20398438 38.09539062 -40.40796875 38.19078125 -41.6484375 38.2890625 C-43.22391877 38.40159688 -44.79944195 38.51354573 -46.375 38.625 C-47.1690625 38.68945312 -47.963125 38.75390625 -48.78125 38.8203125 C-50.85028224 38.96058587 -52.92625536 38.98758237 -55 39 C-55.66 38.34 -56.32 37.68 -57 37 C-51.98364982 36.28261537 -46.96656323 35.57070974 -41.94873047 34.86376953 C-40.2434413 34.62274498 -38.53835923 34.38025026 -36.83349609 34.13623047 C-34.37651284 33.78482306 -31.9188222 33.43878878 -29.4609375 33.09375 C-28.70444916 32.9843811 -27.94796082 32.87501221 -27.16854858 32.7623291 C-23.07555896 32.19350066 -19.14521992 31.88533278 -15 32 C-14.599021 30.70908447 -14.599021 30.70908447 -14.18994141 29.39208984 C-13.00196065 26.00558909 -11.577788 22.92856054 -9.9609375 19.7265625 C-9.38085938 18.57285156 -8.80078125 17.41914062 -8.203125 16.23046875 C-7.59383809 15.02860117 -6.98446198 13.82677881 -6.375 12.625 C-5.75744122 11.39992668 -5.14025018 10.1746679 -4.5234375 8.94921875 C-3.01922833 5.96430368 -1.51130878 2.98132497 0 0 Z " fill="#E8BB27" transform="translate(99,42)"/>
<path d="M0 0 C4.12874793 0.16191168 6.33218199 0.34667554 9.33984375 3.2890625 C13.12547963 8.13577435 15.66869321 13.75913177 18.375 19.25 C18.93316406 20.35085937 19.49132812 21.45171875 20.06640625 22.5859375 C20.58847656 23.63523437 21.11054688 24.68453125 21.6484375 25.765625 C22.12458496 26.72243164 22.60073242 27.67923828 23.09130859 28.66503906 C23.39117676 29.43557617 23.69104492 30.20611328 24 31 C23.67 31.66 23.34 32.32 23 33 C19 33 19 33 17.41430664 31.81469727 C15.72055627 29.64144567 14.57213428 27.44592003 13.37109375 24.96484375 C12.89349609 23.99095703 12.41589844 23.01707031 11.92382812 22.01367188 C11.43333984 20.99853516 10.94285156 19.98339844 10.4375 18.9375 C9.46068169 16.9240062 8.48037676 14.91219903 7.49609375 12.90234375 C6.84918579 11.56417603 6.84918579 11.56417603 6.18920898 10.19897461 C5.07037628 7.87996859 5.07037628 7.87996859 3 6 C0.21697081 5.79127281 -1.48718205 5.74359102 -4 7 C-4 6.01 -4 5.02 -4 4 C-3.34 4 -2.68 4 -2 4 C-1.34 2.68 -0.68 1.36 0 0 Z " fill="#292727" transform="translate(112,18)"/>
<path d="M0 0 C-0.05810547 2.23925781 -0.05810547 2.23925781 -1 5 C-3.36935159 6.65079964 -5.5056519 7.90595885 -8.0703125 9.171875 C-8.78476532 9.53976135 -9.49921814 9.90764771 -10.23532104 10.28668213 C-11.74925547 11.06140856 -13.26765151 11.82746859 -14.79003906 12.58544922 C-17.10575349 13.7404009 -19.40479931 14.92416897 -21.703125 16.11328125 C-23.17878924 16.86374806 -24.65532611 17.61250194 -26.1328125 18.359375 C-26.81538116 18.71038269 -27.49794983 19.06139038 -28.20120239 19.42303467 C-32.44556201 21.51726837 -36.19250069 22.77817192 -41 23 C-41.99 22.34 -42.98 21.68 -44 21 C-40.48812804 18.59185923 -38.27343092 17.63370592 -34 18 C-33.90195068 17.3819751 -33.80390137 16.7639502 -33.70288086 16.12719727 C-33 14 -33 14 -29.75390625 11.96484375 C-28.36492909 11.27244927 -26.96715867 10.59750128 -25.5625 9.9375 C-24.83764404 9.58534424 -24.11278809 9.23318848 -23.3659668 8.87036133 C-18.67302243 6.64112137 -14.0256382 4.889724 -8.98828125 3.5859375 C-5.73151202 2.62618233 -3.36732441 0 0 0 Z " fill="#211E1C" transform="translate(102,170)"/>
<path d="M0 0 C1.96876871 0.95914373 3.90684171 1.9833923 5.8125 3.0625 C6.78832031 3.61035156 7.76414063 4.15820312 8.76953125 4.72265625 C9.87361328 5.35494141 9.87361328 5.35494141 11 6 C10.6875 7.9375 10.6875 7.9375 10 10 C7 11 7 11 4.58203125 9.86328125 C3.66808594 9.35152344 2.75414063 8.83976563 1.8125 8.3125 C-2.14443164 6.27982948 -2.14443164 6.27982948 -6.39453125 6.58984375 C-8.50133964 7.70080534 -8.50133964 7.70080534 -10.34375 9.046875 C-11.16359375 9.51867187 -11.16359375 9.51867187 -12 10 C-12.99 9.67 -13.98 9.34 -15 9 C-14.67 8.34 -14.34 7.68 -14 7 C-14.86625 7.433125 -15.7325 7.86625 -16.625 8.3125 C-17.73875 8.869375 -18.8525 9.42625 -20 10 C-21.051875 10.5775 -22.10375 11.155 -23.1875 11.75 C-26 13 -26 13 -29 12 C-25.1169992 9.78911335 -21.21678979 7.61053665 -17.3125 5.4375 C-16.20970703 4.80908203 -15.10691406 4.18066406 -13.97070312 3.53320312 C-12.90400391 2.94345703 -11.83730469 2.35371094 -10.73828125 1.74609375 C-9.75899658 1.19622803 -8.77971191 0.6463623 -7.77075195 0.07983398 C-4.59052197 -1.15958422 -3.2023937 -1.04771333 0 0 Z " fill="#1A1612" transform="translate(116,163)"/>
<path d="M0 0 C0.99 1.32 1.98 2.64 3 4 C2.67 4.66 2.34 5.32 2 6 C2.20625 6.639375 2.4125 7.27875 2.625 7.9375 C2.74875 8.618125 2.8725 9.29875 3 10 C1.6875 11.75 1.6875 11.75 0 13 C-0.66 13 -1.32 13 -2 13 C-2 13.99 -2 14.98 -2 16 C-2.78375 16.226875 -3.5675 16.45375 -4.375 16.6875 C-7.66874075 18.33437038 -7.79513255 19.64358353 -9 23 C-9.99 23.33 -10.98 23.66 -12 24 C-13.11785113 26.11785113 -13.11785113 26.11785113 -14 29 C-14.99 29.33 -15.98 29.66 -17 30 C-18.02297922 30.97648017 -19.01904252 31.98131338 -20 33 C-21.299375 34.0209375 -21.299375 34.0209375 -22.625 35.0625 C-25.06031981 36.77866905 -25.06031981 36.77866905 -26 39 C-26.66 39 -27.32 39 -28 39 C-28.103125 39.61875 -28.20625 40.2375 -28.3125 40.875 C-29 43 -29 43 -32 45 C-32.99 44.67 -33.98 44.34 -35 44 C-34.57404541 43.59403091 -34.14809082 43.18806183 -33.70922852 42.76979065 C-29.27009042 38.53016063 -24.86327927 34.25885747 -20.47363281 29.96801758 C-18.83257688 28.37215061 -17.18352453 26.78446302 -15.52636719 25.20532227 C-13.1417582 22.93021063 -10.78771665 20.62696441 -8.4375 18.31640625 C-7.6937915 17.61914932 -6.95008301 16.9218924 -6.18383789 16.20350647 C-2.33480461 12.44740273 -2.33480461 12.44740273 -0.57861328 7.5151062 C-0.55749729 5.07235345 -0.55749729 5.07235345 -0.83618164 2.77403259 C-0.91727173 1.89588646 -0.91727173 1.89588646 -1 1 C-0.67 0.67 -0.34 0.34 0 0 Z " fill="#0F0300" transform="translate(198,80)"/>
<path d="M0 0 C0.33 0 0.66 0 1 0 C1.02715383 1.74991334 1.04646551 3.49994945 1.0625 5.25 C1.07410156 6.22453125 1.08570313 7.1990625 1.09765625 8.203125 C1.0108526 10.68918145 0.60615621 12.61325994 0 15 C-0.06624507 16.74886981 -0.08552595 18.50002748 -0.0625 20.25 C-0.04896484 21.58804688 -0.04896484 21.58804688 -0.03515625 22.953125 C-0.02355469 23.62859375 -0.01195312 24.3040625 0 25 C2.31 24.34 4.62 23.68 7 23 C7.33 21.68 7.66 20.36 8 19 C11.60290818 18.07259994 15.23199759 17.32949795 18.87890625 16.59765625 C21.27280682 16.04075539 21.27280682 16.04075539 24 14 C24 13.67 24 13.34 24 13 C25.98 13 27.96 13 30 13 C27.70657553 15.55246394 25.44333586 16.94885716 22.3671875 18.4453125 C21.03494141 19.10080078 21.03494141 19.10080078 19.67578125 19.76953125 C18.75152344 20.21683594 17.82726562 20.66414063 16.875 21.125 C15.03825231 22.02177999 13.20227151 22.92013301 11.3671875 23.8203125 C10.14684814 24.41223389 10.14684814 24.41223389 8.90185547 25.01611328 C7.04300513 25.85594917 7.04300513 25.85594917 6 27 C2.5625 26.75 2.5625 26.75 -1 26 C-3.26532011 22.60201983 -3.18353602 21.94721088 -2.75 18.0625 C-2.64300781 17.09828125 -2.53601562 16.1340625 -2.42578125 15.140625 C-1.73863926 10.07216483 -0.90485303 5.03379402 0 0 Z " fill="#DEA225" transform="translate(60,160)"/>
<path d="M0 0 C6.25530703 0.37257315 12.5002876 0.788847 18.6875 1.8125 C19.47511719 1.94269531 20.26273438 2.07289062 21.07421875 2.20703125 C23 3 23 3 24.26953125 5.07421875 C24.51058594 5.70972656 24.75164062 6.34523438 25 7 C24.01 7.99 23.02 8.98 22 10 C21.67 9.67 21.34 9.34 21 9 C18.81980521 8.60333773 16.6303537 8.25684763 14.4375 7.9375 C13.23996094 7.76089844 12.04242188 7.58429688 10.80859375 7.40234375 C9.88175781 7.26957031 8.95492187 7.13679688 8 7 C7.67 6.01 7.34 5.02 7 4 C5.35448038 3.28272222 3.68577711 2.61674772 2 2 C1.34 1.34 0.68 0.68 0 0 Z " fill="#26211F" transform="translate(174,73)"/>
<path d="M0 0 C4.52762542 0.17755394 6.48085725 0.50393027 9.8125 3.6875 C11.87000626 6.80315233 13.05889976 9.40670816 14 13 C13.01 13.495 13.01 13.495 12 14 C10.86649466 16.01669827 10.86649466 16.01669827 10 18 C9.57847656 17.21753906 9.15695313 16.43507813 8.72265625 15.62890625 C8.17480469 14.61699219 7.62695312 13.60507812 7.0625 12.5625 C6.51722656 11.55316406 5.97195312 10.54382813 5.41015625 9.50390625 C4.22300532 7.13329507 4.22300532 7.13329507 3 6 C-0.63194641 5.80850919 -0.63194641 5.80850919 -4 7 C-4 6.01 -4 5.02 -4 4 C-3.34 4 -2.68 4 -2 4 C-1.34 2.68 -0.68 1.36 0 0 Z " fill="#1E1914" transform="translate(112,18)"/>
<path d="M0 0 C2.97 0.495 2.97 0.495 6 1 C5.04270084 2.12588014 4.08412105 3.2506715 3.125 4.375 C2.59132812 5.00148438 2.05765625 5.62796875 1.5078125 6.2734375 C0.38567993 7.55836651 -0.79371975 8.79371975 -2 10 C-1.94043744 12.55835045 -1.94043744 12.55835045 -1.375 15.625 C-1.18035156 16.8625 -0.98570312 18.1 -0.78515625 19.375 C-0.18396234 22.96112574 0.44205915 26.54284291 1.06640625 30.125 C1.25058105 31.19540527 1.43475586 32.26581055 1.62451172 33.36865234 C1.99671245 35.52147686 2.37711118 37.67290178 2.76611328 39.82275391 C2.93997559 40.82226074 3.11383789 41.82176758 3.29296875 42.8515625 C3.4530542 43.74697754 3.61313965 44.64239258 3.77807617 45.56494141 C4.00075615 48.00829681 3.75149446 49.68247066 3 52 C3 51.34 3 50.68 3 50 C2.34 50 1.68 50 1 50 C0.86722656 48.92621094 0.73445312 47.85242188 0.59765625 46.74609375 C0.41930436 45.30989167 0.24091705 43.87369399 0.0625 42.4375 C-0.02451172 41.73302734 -0.11152344 41.02855469 -0.20117188 40.30273438 C-0.46265497 38.20118502 -0.73044787 36.10052828 -1 34 C-1.16628906 32.69160156 -1.33257812 31.38320312 -1.50390625 30.03515625 C-1.67557766 27.12982764 -1.67557766 27.12982764 -3 26 C-6.55349699 10.77443261 -6.55349699 10.77443261 -3 5 C-1.68 5 -0.36 5 1 5 C0.67 3.35 0.34 1.7 0 0 Z " fill="#D99C20" transform="translate(162,118)"/>
<path d="M0 0 C1.32208302 3.96624907 -0.0042052 6.24492574 -1.5 9.9375 C-2.05973676 11.36492904 -2.61690383 12.79336765 -3.171875 14.22265625 C-3.61756836 15.36951904 -3.61756836 15.36951904 -4.07226562 16.53955078 C-6.06266431 21.81829761 -7.84401934 27.17522742 -9.63867188 32.52319336 C-9.91775391 33.33796143 -10.19683594 34.15272949 -10.484375 34.9921875 C-10.72897461 35.71776855 -10.97357422 36.44334961 -11.22558594 37.19091797 C-12 39 -12 39 -14 41 C-14.6875 39.25 -14.6875 39.25 -15 37 C-14.02727325 35.64664105 -13.0260734 34.31337396 -12 33 C-12 31.68 -12 30.36 -12 29 C-12.33 29.99 -12.66 30.98 -13 32 C-13.66 32 -14.32 32 -15 32 C-13.62502047 28.4656486 -12.1093998 25.0398189 -10.46875 21.62109375 C-9.74751953 20.11579102 -9.74751953 20.11579102 -9.01171875 18.58007812 C-8.51285156 17.54302734 -8.01398438 16.50597656 -7.5 15.4375 C-7.00113281 14.39658203 -6.50226563 13.35566406 -5.98828125 12.28320312 C-2.02966053 4.03165458 -2.02966053 4.03165458 0 0 Z " fill="#FEDF58" transform="translate(106,37)"/>
<path d="M0 0 C0 0.66 0 1.32 0 2 C-3.24926665 2.50484474 -6.49952099 3.00302594 -9.75 3.5 C-10.67039062 3.64308594 -11.59078125 3.78617187 -12.5390625 3.93359375 C-13.87324219 4.13662109 -13.87324219 4.13662109 -15.234375 4.34375 C-16.05131836 4.46943359 -16.86826172 4.59511719 -17.70996094 4.72460938 C-20 5 -20 5 -24 5 C-24.33 3.68 -24.66 2.36 -25 1 C-18.34740306 -2.32629847 -6.26818535 -4.17879023 0 0 Z " fill="#0B0602" transform="translate(84,72)"/>
<path d="M0 0 C2.625 0.4375 2.625 0.4375 5 2.75 C5.53625 3.636875 6.0725 4.52375 6.625 5.4375 C6.295 6.4275 5.965 7.4175 5.625 8.4375 C4.70267578 8.36789063 4.70267578 8.36789063 3.76171875 8.296875 C1.32789026 8.18818728 -0.95480184 8.14466463 -3.375 8.4375 C-5.35739527 10.29874923 -5.35739527 10.29874923 -6.375 12.4375 C-7.035 12.4375 -7.695 12.4375 -8.375 12.4375 C-9.035 14.4175 -9.695 16.3975 -10.375 18.4375 C-11.035 18.1075 -11.695 17.7775 -12.375 17.4375 C-11.08775182 14.97676045 -9.79544687 12.51891829 -8.5 10.0625 C-8.13519531 9.36382812 -7.77039063 8.66515625 -7.39453125 7.9453125 C-3.53728185 0.65160455 -3.53728185 0.65160455 0 0 Z " fill="#EDBF1D" transform="translate(112.375,22.5625)"/>
<path d="M0 0 C1 3 1 3 -0.6171875 6.4765625 C-1.36434651 7.86232469 -2.11726258 9.24499368 -2.875 10.625 C-5.62456013 15.83077176 -7.6662503 20.04853704 -7.79296875 26.02734375 C-8.18556018 29.76807339 -10.17718059 32.76596556 -12 36 C-12.66 35.01 -13.32 34.02 -14 33 C-17.465 33.495 -17.465 33.495 -21 34 C-21 33.34 -21 32.68 -21 32 C-19.02 32 -17.04 32 -15 32 C-14.73268066 31.13938965 -14.46536133 30.2787793 -14.18994141 29.39208984 C-13.00196065 26.00558909 -11.577788 22.92856054 -9.9609375 19.7265625 C-9.38085938 18.57285156 -8.80078125 17.41914062 -8.203125 16.23046875 C-7.59383809 15.02860117 -6.98446198 13.82677881 -6.375 12.625 C-5.75744122 11.39992668 -5.14025018 10.1746679 -4.5234375 8.94921875 C-3.01922833 5.96430368 -1.51130878 2.98132497 0 0 Z " fill="#E5BB26" transform="translate(99,42)"/>
<path d="M0 0 C1.69271945 0.5974304 3.35380887 1.28426473 5 2 C6.093125 2.433125 7.18625 2.86625 8.3125 3.3125 C11.6755684 6.6755684 11.40676898 7.9794947 11.4375 12.625 C11.21723301 18.56553398 11.21723301 18.56553398 10 21 C9.68416554 24.37328752 9.48866238 27.74734365 9.28125 31.12890625 C9 34 9 34 8 35 C7.63239269 37.32817964 7.29758419 39.6618385 7 42 C6.34 41.34 5.68 40.68 5 40 C5.13310325 37.51943952 5.38363926 35.19763188 5.75 32.75 C5.84128174 32.03706787 5.93256348 31.32413574 6.02661133 30.58959961 C6.49323568 27.04254693 7.08570027 23.6338261 7.90234375 20.14453125 C8.68247906 16.58540648 9.25735931 13.6391509 9 10 C6.51646255 6.25145907 3.53457149 3.72879753 0 1 C0 0.67 0 0.34 0 0 Z " fill="#D1A32B" transform="translate(56,118)"/>
<path d="M0 0 C0.33 0 0.66 0 1 0 C2.59003992 10.02416474 2.59003992 10.02416474 0.375 13.6875 C-2.44316926 15.24490933 -3.81526126 15.2787415 -7 15 C-9.40356445 13.99023438 -9.40356445 13.99023438 -11.86328125 12.59375 C-12.74951172 12.09746094 -13.63574219 11.60117188 -14.54882812 11.08984375 C-15.46083984 10.56519531 -16.37285156 10.04054687 -17.3125 9.5 C-18.24384766 8.97535156 -19.17519531 8.45070312 -20.13476562 7.91015625 C-22.42870743 6.61613779 -24.7166413 5.31257423 -27 4 C-25.68 3.67 -24.36 3.34 -23 3 C-23 3.66 -23 4.32 -23 5 C-18.37892907 6.61737483 -13.7539867 7.85248597 -9 9 C-9 8.01 -9 7.02 -9 6 C-8.01 6.33 -7.02 6.66 -6 7 C-6.33 8.98 -6.66 10.96 -7 13 C-3.535 12.505 -3.535 12.505 0 12 C0 8.04 0 4.08 0 0 Z " fill="#DEA325" transform="translate(166,172)"/>
<path d="M0 0 C1.13378906 1.68359375 1.13378906 1.68359375 2 4 C1.24902344 6.41015625 1.24902344 6.41015625 -0.140625 9.0625 C-0.63433594 10.02414063 -1.12804687 10.98578125 -1.63671875 11.9765625 C-2.16910156 12.97429688 -2.70148438 13.97203125 -3.25 15 C-3.76691406 15.99773438 -4.28382812 16.99546875 -4.81640625 18.0234375 C-5.78090376 19.88264976 -6.7519248 21.73850227 -7.73144531 23.58984375 C-8.84929441 25.71367099 -9.93570586 27.848953 -11 30 C-12.23828125 28.5 -12.23828125 28.5 -13 26 C-12.08267341 23.15274426 -10.63247206 20.61088242 -9.1875 18 C-8.42754568 16.58517779 -7.67091839 15.16856241 -6.91796875 13.75 C-6.57531982 13.12609375 -6.2326709 12.5021875 -5.87963867 11.859375 C-4.96487652 9.9257562 -4.44924697 8.08667573 -4 6 C-3.34 6 -2.68 6 -2 6 C-1.34 4.02 -0.68 2.04 0 0 Z " fill="#F6C410" transform="translate(104,35)"/>
<path d="M0 0 C7.78740157 2.35433071 7.78740157 2.35433071 11 5 C11.3125 8.1875 11.3125 8.1875 11 11 C6.0276578 9.50829734 1.58154261 7.39542583 -3 5 C-3 3 -3 3 -1.5 1.375 C-1.005 0.92125 -0.51 0.4675 0 0 Z " fill="#25211D" transform="translate(127,170)"/>
<path d="M0 0 C7.36489974 0.50019225 14.68423025 1.40834237 22 2.375 C23.39835083 2.5457605 23.39835083 2.5457605 24.82495117 2.7199707 C25.70771729 2.84073975 26.5904834 2.96150879 27.5 3.0859375 C28.2940625 3.1895459 29.088125 3.2931543 29.90625 3.39990234 C32.40576548 4.11629799 33.42441067 4.94988748 35 7 C35.5 9.9375 35.5 9.9375 35 13 C32.5 15.375 32.5 15.375 30 17 C29.67 16.01 29.34 15.02 29 14 C29.99 14 30.98 14 32 14 C32 11.69 32 9.38 32 7 C31.15695313 6.86722656 30.31390625 6.73445313 29.4453125 6.59765625 C28.34960938 6.42105469 27.25390625 6.24445313 26.125 6.0625 C25.03445312 5.88847656 23.94390625 5.71445313 22.8203125 5.53515625 C20 5 20 5 18 4 C14.46737167 3.47320455 10.92719319 3.03792901 7.3828125 2.59765625 C4.46335624 2.08186317 2.5106898 1.50767553 0 0 Z " fill="#D4A030" transform="translate(163,77)"/>
<path d="M0 0 C2.33877753 1.55611576 3.33000524 3.02667569 4.734375 5.4453125 C5.37632813 6.53199219 5.37632813 6.53199219 6.03125 7.640625 C6.50304687 8.47207031 6.50304687 8.47207031 6.984375 9.3203125 C6.324375 9.3203125 5.664375 9.3203125 4.984375 9.3203125 C4.654375 10.3103125 4.324375 11.3003125 3.984375 12.3203125 C2.47543054 10.89220435 0.97745155 9.45250231 -0.515625 8.0078125 C-1.3509375 7.20730469 -2.18625 6.40679687 -3.046875 5.58203125 C-5.015625 3.3203125 -5.015625 3.3203125 -5.015625 0.3203125 C-2.015625 -0.6796875 -2.015625 -0.6796875 0 0 Z " fill="#262427" transform="translate(54.015625,116.6796875)"/>
<path d="M0 0 C2.64 0 5.28 0 8 0 C8.04241723 2.33294775 8.04092937 4.66702567 8 7 C7 8 7 8 3.4375 8.0625 C2.303125 8.041875 1.16875 8.02125 0 8 C0 5.36 0 2.72 0 0 Z " fill="#FED84A" transform="translate(58,82)"/>
<path d="M0 0 C0.66 0.33 1.32 0.66 2 1 C1 4 1 4 -0.890625 4.94921875 C-8.75674619 7.41063747 -8.75674619 7.41063747 -13 7 C-13 5.35 -13 3.7 -13 2 C-12.22914062 1.93941406 -11.45828125 1.87882812 -10.6640625 1.81640625 C-9.15972656 1.69072266 -9.15972656 1.69072266 -7.625 1.5625 C-6.62726563 1.48128906 -5.62953125 1.40007812 -4.6015625 1.31640625 C-2.02072387 1.15034374 -2.02072387 1.15034374 0 0 Z " fill="#FDE072" transform="translate(86,79)"/>
<path d="M0 0 C3.63 0 7.26 0 11 0 C11 0.99 11 1.98 11 3 C11.721875 3.103125 12.44375 3.20625 13.1875 3.3125 C16.25985448 4.06351998 18.32094129 5.35134849 21 7 C22.11375 7.2475 22.11375 7.2475 23.25 7.5 C23.8275 7.665 24.405 7.83 25 8 C25.33 8.99 25.66 9.98 26 11 C20.17295512 9.26858546 15.33721998 6.42906098 10.12109375 3.36328125 C6.709423 1.87307713 5.45407439 1.80852486 2 3 C-0.23408113 3.99083967 -0.23408113 3.99083967 -2 5 C-2 4.34 -2 3.68 -2 3 C-1.34 3 -0.68 3 0 3 C0 2.01 0 1.02 0 0 Z " fill="#D4A02E" transform="translate(107,161)"/>
<path d="M0 0 C0.99 1.32 1.98 2.64 3 4 C2.67 4.66 2.34 5.32 2 6 C2.20625 6.639375 2.4125 7.27875 2.625 7.9375 C2.74875 8.618125 2.8725 9.29875 3 10 C1.6875 11.75 1.6875 11.75 0 13 C-0.66 13 -1.32 13 -2 13 C-2 13.99 -2 14.98 -2 16 C-2.78375 16.2475 -3.5675 16.495 -4.375 16.75 C-7.32317108 18.15389099 -7.9024777 19.00675737 -9 22 C-9.66 21.34 -10.32 20.68 -11 20 C-10.278125 19.38253906 -9.55625 18.76507813 -8.8125 18.12890625 C-3.39884846 13.53112956 -3.39884846 13.53112956 -0.37109375 7.3671875 C-0.39832176 4.67586253 -0.39832176 4.67586253 -1 1 C-0.67 0.67 -0.34 0.34 0 0 Z " fill="#2E1801" transform="translate(198,80)"/>
<path d="M0 0 C0.598125 0.226875 1.19625 0.45375 1.8125 0.6875 C-0.6625 2.1725 -0.6625 2.1725 -3.1875 3.6875 C-2.8575 4.6775 -2.5275 5.6675 -2.1875 6.6875 C-1.1975 6.6875 -0.2075 6.6875 0.8125 6.6875 C0.8125 8.3375 0.8125 9.9875 0.8125 11.6875 C1.8025 11.6875 2.7925 11.6875 3.8125 11.6875 C4.4725 13.9975 5.1325 16.3075 5.8125 18.6875 C4.07691516 17.22492851 2.35064636 15.75357838 0.63671875 14.265625 C-0.76608364 13.05206576 -2.19104151 11.86408133 -3.625 10.6875 C-5.1875 8.6875 -5.1875 8.6875 -5.625 5.625 C-5.1875 2.6875 -5.1875 2.6875 -3.9375 0.75 C-2.1875 -0.3125 -2.1875 -0.3125 0 0 Z " fill="#E5BE2A" transform="translate(32.1875,81.3125)"/>
<path d="M0 0 C0.33 0 0.66 0 1 0 C1.74096976 4.05495223 2.47103776 8.11170262 3.19116211 12.17041016 C3.43753734 13.55017623 3.68685878 14.92941966 3.93920898 16.30810547 C4.30190066 18.29253687 4.65304659 20.27906749 5.00390625 22.265625 C5.21861572 23.45961914 5.4333252 24.65361328 5.65454102 25.88378906 C5.9654598 28.6884303 5.93342689 30.37846065 5 33 C5 32.34 5 31.68 5 31 C4.34 31 3.68 31 3 31 C2.80083984 29.38931641 2.80083984 29.38931641 2.59765625 27.74609375 C2.41930436 26.30989167 2.24091705 24.87369399 2.0625 23.4375 C1.97548828 22.73302734 1.88847656 22.02855469 1.79882812 21.30273438 C1.38095424 17.94426645 0.93961355 14.59742365 0.4375 11.25 C-0.07695676 7.42832123 -0.06752874 3.84913796 0 0 Z " fill="#CC972C" transform="translate(160,137)"/>
<path d="M0 0 C1.40588896 4.21766688 -0.18701354 7.1446886 -1.6875 11.125 C-1.94466797 11.86621094 -2.20183594 12.60742188 -2.46679688 13.37109375 C-3.26171875 15.5078125 -3.26171875 15.5078125 -5 19 C-7.10864258 19.71826172 -7.10864258 19.71826172 -9 20 C-7.55676531 15.26210835 -5.62773267 11.01141849 -3.375 6.625 C-2.88773437 5.66400391 -2.88773437 5.66400391 -2.390625 4.68359375 C-1.59742593 3.12052499 -0.79922969 1.55999378 0 0 Z " fill="#FEDD52" transform="translate(106,37)"/>
<path d="M0 0 C-2.70787448 1.43836985 -5.41628161 2.87572092 -8.125 4.3125 C-9.26582031 4.91868164 -9.26582031 4.91868164 -10.4296875 5.53710938 C-11.92541667 6.33010372 -13.4231083 7.11940886 -14.92285156 7.90478516 C-16.74875929 8.8675287 -18.55932306 9.85925575 -20.3671875 10.85546875 C-23 12 -23 12 -26 11 C-22.42766684 8.95924003 -18.84056921 6.94597465 -15.25 4.9375 C-13.72632812 4.06641602 -13.72632812 4.06641602 -12.171875 3.17773438 C-11.1921875 2.63310547 -10.2125 2.08847656 -9.203125 1.52734375 C-8.30239258 1.01937256 -7.40166016 0.51140137 -6.47363281 -0.01196289 C-3.75120289 -1.09937642 -2.68306096 -1.05405966 0 0 Z " fill="#120500" transform="translate(113,164)"/>
<path d="M0 0 C1 3 1 3 -0.65234375 6.58203125 C-1.78356216 8.71032359 -2.94253252 10.82161566 -4.10742188 12.93164062 C-6.34453514 17.14940797 -7.50110102 20.08921003 -7 25 C-8.65 25 -10.3 25 -12 25 C-10.56358915 21.95781784 -9.12567446 18.91634877 -7.6875 15.875 C-7.28337891 15.0190625 -6.87925781 14.163125 -6.46289062 13.28125 C-4.35646978 8.82865309 -2.22589182 4.39415537 0 0 Z " fill="#DCB82F" transform="translate(99,42)"/>
<path d="M0 0 C1.69271945 0.5974304 3.35380887 1.28426473 5 2 C6.093125 2.433125 7.18625 2.86625 8.3125 3.3125 C11 6 11 6 11.37890625 9.15234375 C11.37532048 12.45483701 11.25688181 15.70810713 11 19 C10.67 19 10.34 19 10 19 C10.020625 17.700625 10.04125 16.40125 10.0625 15.0625 C9.4905058 9.24107512 6.12357306 6.51509841 1.93359375 2.75 C1.29550781 2.1725 0.65742187 1.595 0 1 C0 0.67 0 0.34 0 0 Z " fill="#EDBD23" transform="translate(56,118)"/>
<path d="M0 0 C1.22589844 0.01353516 1.22589844 0.01353516 2.4765625 0.02734375 C3.41628906 0.04474609 3.41628906 0.04474609 4.375 0.0625 C4.375 0.7225 4.375 1.3825 4.375 2.0625 C2.725 2.3925 1.075 2.7225 -0.625 3.0625 C-0.625 5.7025 -0.625 8.3425 -0.625 11.0625 C-2.27326111 8.09562999 -3.06771087 5.40623475 -3.625 2.0625 C-4.615 1.7325 -5.605 1.4025 -6.625 1.0625 C-4.21954362 -0.14022819 -2.67503047 -0.03821472 0 0 Z " fill="#F8C70D" transform="translate(72.625,76.9375)"/>
<path d="M0 0 C0 0.33 0 0.66 0 1 C-6.08535675 2.39663925 -11.7453294 3.44676219 -18 3 C-18.66 2.34 -19.32 1.68 -20 1 C-17.79355164 0.63427363 -15.58471965 0.28291166 -13.375 -0.0625 C-11.53035156 -0.35833984 -11.53035156 -0.35833984 -9.6484375 -0.66015625 C-6.15426941 -0.98563015 -3.40955765 -0.75010268 0 0 Z " fill="#D6B029" transform="translate(62,78)"/>
<path d="M0 0 C0.33 0.99 0.66 1.98 1 3 C-2.73629021 6.73629021 -9.14619524 6.84362714 -14.28125 7.125 C-15.85471845 7.125 -17.4280833 7.06986296 -19 7 C-14.58955659 4.47974662 -9.82349004 3.79946311 -4.8984375 2.78125 C-1.89861503 2.23109045 -1.89861503 2.23109045 0 0 Z " fill="#F5C617" transform="translate(91,82)"/>
<path d="M0 0 C3.96 1.98 7.92 3.96 12 6 C12 6.66 12 7.32 12 8 C11.01 8 10.02 8 9 8 C9 7.34 9 6.68 9 6 C7.02 6.33 5.04 6.66 3 7 C3 6.34 3 5.68 3 5 C2.01 4.34 1.02 3.68 0 3 C0 2.01 0 1.02 0 0 Z " fill="#1B0A03" transform="translate(138,175)"/>
<path d="M0 0 C0.33 1.32 0.66 2.64 1 4 C-5.625 5.25 -5.625 5.25 -9 3 C-5.92807025 0.26939578 -4.09590633 -0.34132553 0 0 Z " fill="#353132" transform="translate(67,188)"/>
<path d="M0 0 C1.38277746 3.84104849 0.84362303 7.06309254 0 11 C-1.4375 13.4375 -1.4375 13.4375 -3 15 C-3.66 15 -4.32 15 -5 15 C-4.54705135 13.24859857 -4.08741252 11.49892656 -3.625 9.75 C-3.36976562 8.77546875 -3.11453125 7.8009375 -2.8515625 6.796875 C-2.10401491 4.34162697 -1.22876183 2.24382595 0 0 Z " fill="#F9C71B" transform="translate(101,54)"/>
<path d="M0 0 C-0.33 1.32 -0.66 2.64 -1 4 C-1.50015625 3.83628906 -2.0003125 3.67257813 -2.515625 3.50390625 C-5.9263468 2.8121089 -9.28735757 2.89495335 -12.75 2.9375 C-13.44738281 2.94201172 -14.14476563 2.94652344 -14.86328125 2.95117188 C-16.57555803 2.9628998 -18.28779033 2.98083347 -20 3 C-20 2.67 -20 2.34 -20 2 C-17.41703099 1.66361334 -14.83368737 1.3307835 -12.25 1 C-11.15558594 0.85691406 -11.15558594 0.85691406 -10.0390625 0.7109375 C-6.65143196 0.27978452 -3.42145141 0 0 0 Z " fill="#414141" transform="translate(86,68)"/>
<path d="M0 0 C0.66 0 1.32 0 2 0 C2.78774617 8.03501094 2.78774617 8.03501094 -0.5 12.0625 C-1.325 12.701875 -2.15 13.34125 -3 14 C-4.32 13.34 -5.64 12.68 -7 12 C-6.401875 11.731875 -5.80375 11.46375 -5.1875 11.1875 C-2.85873253 9.92331195 -1.50756717 9.1859724 0 7 C0.2503577 3.37464024 0.2503577 3.37464024 0 0 Z " fill="#140600" transform="translate(167,176)"/>
<path d="M0 0 C0.33 0 0.66 0 1 0 C1.95619733 3.99795892 2.1039592 7.70803922 2.0625 11.8125 C2.05347656 12.97394531 2.04445312 14.13539063 2.03515625 15.33203125 C2.02355469 16.21246094 2.01195312 17.09289062 2 18 C1.67 18 1.34 18 1 18 C-1.3938068 5.98821945 -1.3938068 5.98821945 -1 1 C-0.67 0.67 -0.34 0.34 0 0 Z " fill="#E8A722" transform="translate(158,126)"/>
<path d="M0 0 C2.74792483 3.40219265 6 7.48464588 6 12 C5.01 12.33 4.02 12.66 3 13 C1.56580787 8.69742362 0.71292427 4.48123828 0 0 Z " fill="#E6C023" transform="translate(119,30)"/>
<path d="M0 0 C3.63 0 7.26 0 11 0 C11 0.66 11 1.32 11 2 C9.96875 1.938125 8.9375 1.87625 7.875 1.8125 C3.76531027 2.01135595 1.51117504 2.94467803 -2 5 C-2 4.34 -2 3.68 -2 3 C-1.34 3 -0.68 3 0 3 C0 2.01 0 1.02 0 0 Z " fill="#E4A627" transform="translate(107,161)"/>
<path d="M0 0 C0.99 1.32 1.98 2.64 3 4 C2.67 4.66 2.34 5.32 2 6 C2.39938767 8.09821215 2.39938767 8.09821215 3 10 C2.01 10.66 1.02 11.32 0 12 C-0.19401633 10.18818595 -0.38004375 8.37551468 -0.5625 6.5625 C-0.66691406 5.55316406 -0.77132812 4.54382813 -0.87890625 3.50390625 C-0.91886719 2.67761719 -0.95882812 1.85132812 -1 1 C-0.67 0.67 -0.34 0.34 0 0 Z " fill="#130703" transform="translate(198,80)"/>
<path d="M0 0 C1.65 0 3.3 0 5 0 C5 1.98 5 3.96 5 6 C3.68 6 2.36 6 1 6 C0.67 4.02 0.34 2.04 0 0 Z " fill="#FEE16D" transform="translate(59,83)"/>
<path d="M0 0 C2.64 0 5.28 0 8 0 C7.01 0.495 7.01 0.495 6 1 C6 2.32 6 3.64 6 5 C4.35 5 2.7 5 1 5 C1.33 4.01 1.66 3.02 2 2 C1.34 1.34 0.68 0.68 0 0 Z " fill="#F5C720" transform="translate(60,77)"/>
<path d="M0 0 C-0.66 1.65 -1.32 3.3 -2 5 C-2.33 4.34 -2.66 3.68 -3 3 C-5.31 3.66 -7.62 4.32 -10 5 C-10 4.01 -10 3.02 -10 2 C-3.375 0 -3.375 0 0 0 Z M-12 5 C-10 6 -10 6 -10 6 Z " fill="#100601" transform="translate(70,185)"/>
<path d="M0 0 C1.9375 0.375 1.9375 0.375 4 1 C4.33 1.66 4.66 2.32 5 3 C5.66 2.67 6.32 2.34 7 2 C7.66 4.31 8.32 6.62 9 9 C7.87105124 8.06725891 6.74699124 7.12859878 5.625 6.1875 C4.99851562 5.66542969 4.37203125 5.14335938 3.7265625 4.60546875 C2 3 2 3 0 0 Z " fill="#F4CA2A" transform="translate(29,91)"/>
<path d="M0 0 C0.66 0 1.32 0 2 0 C1.67 0.66 1.34 1.32 1 2 C0.67 1.34 0.34 0.68 0 0 Z M-1 1 C-0.67 1.66 -0.34 2.32 0 3 C-0.99 4.485 -0.99 4.485 -2 6 C-3.65 5.67 -5.3 5.34 -7 5 C-5.03617993 3.49440461 -3.21736634 2.10868317 -1 1 Z " fill="#2A2C2B" transform="translate(166,187)"/>
<path d="M0 0 C0.33 0.66 0.66 1.32 1 2 C-6.28571429 6.42857143 -6.28571429 6.42857143 -11 7 C-7.53258866 4.04250209 -4.13126473 1.92151848 0 0 Z " fill="#1E0C00" transform="translate(98,169)"/>
<path d="M0 0 C1.15957207 3.47871621 0.77456651 4.34219645 -0.4375 7.6875 C-0.72496094 8.49574219 -1.01242188 9.30398437 -1.30859375 10.13671875 C-1.53675781 10.75160156 -1.76492187 11.36648437 -2 12 C-2.99 11.34 -3.98 10.68 -5 10 C-3.35 6.7 -1.7 3.4 0 0 Z " fill="#FEDA3F" transform="translate(106,37)"/>
<path d="M0 0 C3.57011026 3.732388 4.10913442 8.0949989 5 13 C2.47368858 9.87218586 0.57626634 6.70422589 -1 3 C-0.67 2.01 -0.34 1.02 0 0 Z " fill="#1B0F00" transform="translate(124,35)"/>
<path d="M0 0 C1.98 0 3.96 0 6 0 C3.27521226 3.36591427 -0.06856792 4.44226276 -4 6 C-3 3 -3 3 0 1 C0 0.67 0 0.34 0 0 Z " fill="#D29D26" transform="translate(84,173)"/>
<path d="M0 0 C1.98 0 3.96 0 6 0 C2.87511433 2.52394612 -0.31314387 4.39701907 -4 6 C-4.66 5.67 -5.32 5.34 -6 5 C-5.195625 4.54625 -4.39125 4.0925 -3.5625 3.625 C-0.91143428 2.25274335 -0.91143428 2.25274335 0 0 Z " fill="#D7A12D" transform="translate(98,166)"/>
<path d="M0 0 C4.41889613 1.35021826 6.34345343 3.26115668 9 7 C6 7 6 7 4.39453125 5.46875 C3.87246094 4.8190625 3.35039063 4.169375 2.8125 3.5 C2.28269531 2.8503125 1.75289062 2.200625 1.20703125 1.53125 C0.80871094 1.0259375 0.41039062 0.520625 0 0 Z " fill="#D5AD2E" transform="translate(56,118)"/>
<path d="M0 0 C0.66 0 1.32 0 2 0 C2.3125 2.25 2.3125 2.25 2 5 C-0.5 7.3125 -0.5 7.3125 -3 9 C-3.33 8.01 -3.66 7.02 -4 6 C-3.01 6 -2.02 6 -1 6 C-0.67 4.02 -0.34 2.04 0 0 Z " fill="#EEAF24" transform="translate(196,85)"/>
<path d="M0 0 C-0.33 1.98 -0.66 3.96 -1 6 C-1.99 6 -2.98 6 -4 6 C-4 4.35 -4 2.7 -4 1 C-2 0 -2 0 0 0 Z " fill="#FAC418" transform="translate(91,66)"/>
<path d="M0 0 C1.32 1.32 2.64 2.64 4 4 C3.34 4.66 2.68 5.32 2 6 C1.34 5.67 0.68 5.34 0 5 C-0.33 5.66 -0.66 6.32 -1 7 C-0.67 4.69 -0.34 2.38 0 0 Z " fill="#130E0D" transform="translate(49,112)"/>
<path d="M0 0 C0.66 0.66 1.32 1.32 2 2 C1.74739753 5.78903708 -0.27849443 7.54186593 -3 10 C-2.01 6.7 -1.02 3.4 0 0 Z " fill="#F8C614" transform="translate(105,43)"/>
<path d="M0 0 C0.33 1.32 0.66 2.64 1 4 C-0.98 4 -2.96 4 -5 4 C-4.67 3.01 -4.34 2.02 -4 1 C-1.9375 0.3125 -1.9375 0.3125 0 0 Z " fill="#F8C604" transform="translate(85,74)"/>
</svg>
